Coordinates
version=1
nRows=43
nColumns=12
inDegrees=yes

Units are S.I. units (second, meters, Newtons, ...)
Angles are in degrees

endheader
time	SC_y	SC_z	SC_x	AC_y	AC_z	AC_x	GH_y	GH_z	GH_yy	EL_x	PS_y
       0.0              -54.42        -0.5689          17.01          42.11        -0.5603          -15.4          41.46          79.89         -49.16          128.0          122.3
    0.0343              -54.42        -0.5637          17.02          42.11        -0.5597         -15.39          41.45          79.89         -49.15          128.0          122.3
    0.0686              -54.41        -0.5582          17.03          42.11        -0.5591         -15.39          41.44          79.89         -49.15          128.0          122.3
    0.1029              -54.41        -0.5523          17.04          42.11        -0.5584         -15.38          41.42           79.9         -49.15          128.0          122.3
    0.1372               -54.4        -0.5461          17.05          42.11        -0.5577         -15.38          41.41           79.9         -49.15          127.9          122.3
    0.1715               -54.4        -0.5394          17.06          42.11        -0.5569         -15.37          41.39           79.9         -49.15          127.9          122.3
    0.2058              -54.39        -0.5323          17.07          42.11         -0.556         -15.37          41.38           79.9         -49.15          127.9          122.3
    0.2401              -54.39        -0.5247          17.09          42.12        -0.5551         -15.36          41.36           79.9         -49.14          127.9          122.2
    0.2744              -54.38        -0.5166           17.1          42.12        -0.5542         -15.35          41.34           79.9         -49.14          127.9          122.2
    0.3087              -54.37        -0.5079          17.12          42.12        -0.5531         -15.34          41.32           79.9         -49.14          127.9          122.2
     0.343              -54.37        -0.4985          17.13          42.12         -0.552         -15.34           41.3           79.9         -49.14          127.9          122.2
    0.3773              -54.36        -0.4884          17.15          42.12        -0.5508         -15.33          41.27           79.9         -49.13          127.8          122.1
    0.4116              -54.35        -0.4775          17.17          42.13        -0.5496         -15.32          41.25          79.91         -49.13          127.8          122.1
    0.4459              -54.34        -0.4658          17.19          42.13        -0.5482         -15.31          41.22          79.91         -49.13          127.8          122.1
    0.4802              -54.33        -0.4531          17.22          42.13        -0.5467          -15.3          41.19          79.91         -49.13          127.8          122.1
    0.5145              -54.32        -0.4393          17.24          42.13         -0.545         -15.29          41.16          79.91         -49.12          127.8          122.0
    0.5488              -54.31        -0.4243          17.27          42.14        -0.5433         -15.27          41.12          79.91         -49.12          127.7          122.0
    0.5831               -54.3         -0.408           17.3          42.14        -0.5413         -15.26          41.08          79.92         -49.11          127.7          122.0
    0.6174              -54.28        -0.3902          17.33          42.14        -0.5392         -15.24          41.04          79.92         -49.11          127.7          121.9
    0.6517              -54.27        -0.3707          17.36          42.15        -0.5369         -15.23          40.99          79.92          -49.1          127.6          121.9
     0.686              -54.25        -0.3493           17.4          42.15        -0.5344         -15.21          40.94          79.92          -49.1          127.6          121.8
    0.7203              -54.23        -0.3257          17.44          42.16        -0.5316         -15.19          40.89          79.93         -49.09          127.6          121.8
    0.7546              -54.21        -0.2997          17.49          42.16        -0.5285         -15.17          40.83          79.93         -49.09          127.5          121.7
    0.7889              -54.19        -0.2708          17.54          42.17        -0.5251         -15.14          40.76          79.93         -49.08          127.5          121.6
    0.8232              -54.17        -0.2387           17.6          42.17        -0.5213         -15.11          40.68          79.94         -49.07          127.4          121.5
    0.8575              -54.14         -0.203          17.66          42.18        -0.5171         -15.08           40.6          79.94         -49.06          127.4          121.4
    0.8918              -54.11        -0.1629          17.73          42.19        -0.5123         -15.05           40.5          79.95         -49.05          127.3          121.4
    0.9261              -54.07        -0.1178          17.81           42.2         -0.507         -15.01           40.4          79.96         -49.04          127.2          121.2
    0.9604              -54.03       -0.06681           17.9          42.21         -0.501         -14.97          40.27          79.96         -49.02          127.1          121.1
    0.9947              -53.99      -0.008951           18.0          42.22        -0.4941         -14.92          40.14          79.97         -49.01          127.0          121.0
     1.029              -53.94        0.05708          18.12          42.24        -0.4863         -14.86          39.98          79.98         -48.99          126.9          120.8
     1.063              -53.88         0.1329          18.26          42.25        -0.4774          -14.8           39.8          79.99         -48.97          126.8          120.6
     1.098              -53.81         0.2204          18.41          42.27         -0.467         -14.72          39.59           80.0         -48.95          126.6          120.4
     1.132              -53.73          0.322          18.59          42.29         -0.455         -14.64          39.35          80.02         -48.92          126.4          120.2
     1.166              -53.64          0.441           18.8          42.31         -0.441         -14.53          39.07          80.04         -48.89          126.2          119.9
       1.2              -53.53         0.5812          19.05          42.34        -0.4244         -14.41          38.74          80.06         -48.85          126.0          119.5
     1.235               -53.4         0.7479          19.35          42.38        -0.4047         -14.27          38.34          80.08         -48.81          125.7          119.1
     1.269              -53.25         0.9476           19.7          42.42        -0.3811          -14.1          37.87          80.11         -48.76          125.4          118.6
     1.303              -53.06          1.189          20.13          42.47        -0.3525         -13.89           37.3          80.14         -48.69          124.9          118.0
     1.338              -52.83          1.485          20.65          42.53        -0.3176         -13.64           36.6          80.18         -48.61          124.4          117.3
     1.372              -52.55          1.849           21.3           42.6        -0.2745         -13.33          35.73          80.23         -48.52          123.8          116.4
     1.406               -52.2          2.303          22.11           42.7        -0.2208         -12.94          34.66           80.3          -48.4          123.0          115.3
     1.441              -51.75          2.876          23.12          42.82        -0.1531         -12.45           33.3          80.38         -48.25          122.0          113.9
